<mxfile host="Electron" modified="2024-04-14T00:42:56.579Z" agent="Mozilla/5.0 (Windows NT 10.0; Win64; x64) AppleWebKit/537.36 (KHTML, like Gecko) draw.io/24.1.0 Chrome/120.0.6099.109 Electron/28.1.0 Safari/537.36" etag="UytEVXjhDwQqro-cnZiz" version="24.1.0" type="device">
  <diagram id="C5RBs43oDa-KdzZeNtuy" name="Page-1">
    <mxGraphModel dx="4367" dy="3045" grid="1" gridSize="10" guides="1" tooltips="1" connect="1" arrows="1" fold="1" page="1" pageScale="1" pageWidth="827" pageHeight="1169" math="0" shadow="0">
      <root>
        <mxCell id="WIyWlLk6GJQsqaUBKTNV-0" />
        <mxCell id="WIyWlLk6GJQsqaUBKTNV-1" parent="WIyWlLk6GJQsqaUBKTNV-0" />
        <mxCell id="UO6ceEUE-K-IvFFHwdzp-2" value="Human" style="swimlane;fontStyle=2;align=center;verticalAlign=middle;childLayout=stackLayout;horizontal=1;startSize=26;horizontalStack=0;resizeParent=1;resizeLast=0;collapsible=1;marginBottom=0;rounded=0;shadow=0;strokeWidth=1;" vertex="1" parent="WIyWlLk6GJQsqaUBKTNV-1">
          <mxGeometry x="-368" y="-960" width="160" height="125" as="geometry">
            <mxRectangle x="20" y="505" width="170" height="26" as="alternateBounds" />
          </mxGeometry>
        </mxCell>
        <mxCell id="UO6ceEUE-K-IvFFHwdzp-3" value="+Address{get;set;}:String&#xa;+City{get;set;}:String&#xa;+Email{get;set;}:String&#xa;+FName{get;set;}:String&#xa;+LName{get;set;}:String&#xa;+Region{get;set;}:String" style="text;align=left;verticalAlign=top;spacingLeft=4;spacingRight=4;overflow=hidden;rotatable=0;points=[[0,0.5],[1,0.5]];portConstraint=eastwest;" vertex="1" parent="UO6ceEUE-K-IvFFHwdzp-2">
          <mxGeometry y="26" width="160" height="94" as="geometry" />
        </mxCell>
        <mxCell id="UO6ceEUE-K-IvFFHwdzp-10" style="edgeStyle=orthogonalEdgeStyle;rounded=0;orthogonalLoop=1;jettySize=auto;html=1;entryX=0.5;entryY=1;entryDx=0;entryDy=0;" edge="1" parent="WIyWlLk6GJQsqaUBKTNV-1" source="UO6ceEUE-K-IvFFHwdzp-8" target="UO6ceEUE-K-IvFFHwdzp-2">
          <mxGeometry relative="1" as="geometry" />
        </mxCell>
        <mxCell id="UO6ceEUE-K-IvFFHwdzp-8" value="Emploee" style="swimlane;fontStyle=0;align=center;verticalAlign=top;childLayout=stackLayout;horizontal=1;startSize=26;horizontalStack=0;resizeParent=1;resizeLast=0;collapsible=1;marginBottom=0;rounded=0;shadow=0;strokeWidth=1;" vertex="1" parent="WIyWlLk6GJQsqaUBKTNV-1">
          <mxGeometry x="-413" y="-765" width="250" height="90" as="geometry">
            <mxRectangle x="20" y="505" width="170" height="26" as="alternateBounds" />
          </mxGeometry>
        </mxCell>
        <mxCell id="UO6ceEUE-K-IvFFHwdzp-9" value="+DateOfBirth{get;set;}:DateTime?&#xa;+DateOfHire{get;set;}:DateTime?&#xa;+Id{get;set;}:Integer&#xa;+Position{get;set;}:String&#xa;" style="text;align=left;verticalAlign=top;spacingLeft=4;spacingRight=4;overflow=hidden;rotatable=0;points=[[0,0.5],[1,0.5]];portConstraint=eastwest;" vertex="1" parent="UO6ceEUE-K-IvFFHwdzp-8">
          <mxGeometry y="26" width="250" height="64" as="geometry" />
        </mxCell>
        <mxCell id="UO6ceEUE-K-IvFFHwdzp-18" style="edgeStyle=orthogonalEdgeStyle;rounded=0;orthogonalLoop=1;jettySize=auto;html=1;exitX=0.5;exitY=0;exitDx=0;exitDy=0;entryX=0.5;entryY=1;entryDx=0;entryDy=0;" edge="1" parent="WIyWlLk6GJQsqaUBKTNV-1" source="UO6ceEUE-K-IvFFHwdzp-11" target="UO6ceEUE-K-IvFFHwdzp-14">
          <mxGeometry relative="1" as="geometry" />
        </mxCell>
        <mxCell id="UO6ceEUE-K-IvFFHwdzp-11" value="ApplicationContext" style="swimlane;fontStyle=0;align=center;verticalAlign=top;childLayout=stackLayout;horizontal=1;startSize=26;horizontalStack=0;resizeParent=1;resizeLast=0;collapsible=1;marginBottom=0;rounded=0;shadow=0;strokeWidth=1;" vertex="1" parent="WIyWlLk6GJQsqaUBKTNV-1">
          <mxGeometry x="24" y="-505" width="390" height="95" as="geometry">
            <mxRectangle x="20" y="505" width="170" height="26" as="alternateBounds" />
          </mxGeometry>
        </mxCell>
        <mxCell id="UO6ceEUE-K-IvFFHwdzp-12" value="+Emploees{get;set;}:DbSet&lt;Emploee&gt;&#xa;&#xa;" style="text;align=left;verticalAlign=top;spacingLeft=4;spacingRight=4;overflow=hidden;rotatable=0;points=[[0,0.5],[1,0.5]];portConstraint=eastwest;" vertex="1" parent="UO6ceEUE-K-IvFFHwdzp-11">
          <mxGeometry y="26" width="390" height="24" as="geometry" />
        </mxCell>
        <mxCell id="UO6ceEUE-K-IvFFHwdzp-4" value="" style="line;html=1;strokeWidth=1;align=left;verticalAlign=middle;spacingTop=-1;spacingLeft=3;spacingRight=3;rotatable=0;labelPosition=right;points=[];portConstraint=eastwest;" vertex="1" parent="UO6ceEUE-K-IvFFHwdzp-11">
          <mxGeometry y="50" width="390" height="14" as="geometry" />
        </mxCell>
        <mxCell id="UO6ceEUE-K-IvFFHwdzp-13" value="+ApplicationContext(DbContextOptions&lt;ApplicationContext&gt; options)&#xa;" style="text;align=left;verticalAlign=top;spacingLeft=4;spacingRight=4;overflow=hidden;rotatable=0;points=[[0,0.5],[1,0.5]];portConstraint=eastwest;" vertex="1" parent="UO6ceEUE-K-IvFFHwdzp-11">
          <mxGeometry y="64" width="390" height="24" as="geometry" />
        </mxCell>
        <mxCell id="UO6ceEUE-K-IvFFHwdzp-14" value="DbContext" style="swimlane;fontStyle=0;align=center;verticalAlign=middle;childLayout=stackLayout;horizontal=1;startSize=26;horizontalStack=0;resizeParent=1;resizeLast=0;collapsible=1;marginBottom=0;rounded=0;shadow=0;strokeWidth=1;strokeColor=#808080;fontColor=#808080;" vertex="1" collapsed="1" parent="WIyWlLk6GJQsqaUBKTNV-1">
          <mxGeometry x="139" y="-630" width="170" height="26" as="geometry">
            <mxRectangle x="355" y="380" width="160" height="60" as="alternateBounds" />
          </mxGeometry>
        </mxCell>
        <mxCell id="UO6ceEUE-K-IvFFHwdzp-16" value="" style="line;html=1;strokeWidth=1;align=left;verticalAlign=middle;spacingTop=-1;spacingLeft=3;spacingRight=3;rotatable=0;labelPosition=right;points=[];portConstraint=eastwest;strokeColor=#808080;fillColor=#808080;" vertex="1" parent="UO6ceEUE-K-IvFFHwdzp-14">
          <mxGeometry y="26" width="160" height="34" as="geometry" />
        </mxCell>
        <mxCell id="UO6ceEUE-K-IvFFHwdzp-27" value="Controller" style="swimlane;fontStyle=0;align=center;verticalAlign=middle;childLayout=stackLayout;horizontal=1;startSize=26;horizontalStack=0;resizeParent=1;resizeLast=0;collapsible=1;marginBottom=0;rounded=0;shadow=0;strokeWidth=1;strokeColor=#808080;fontColor=#808080;" vertex="1" collapsed="1" parent="WIyWlLk6GJQsqaUBKTNV-1">
          <mxGeometry x="780" y="-620" width="170" height="26" as="geometry">
            <mxRectangle x="355" y="380" width="160" height="60" as="alternateBounds" />
          </mxGeometry>
        </mxCell>
        <mxCell id="UO6ceEUE-K-IvFFHwdzp-28" value="" style="line;html=1;strokeWidth=1;align=left;verticalAlign=middle;spacingTop=-1;spacingLeft=3;spacingRight=3;rotatable=0;labelPosition=right;points=[];portConstraint=eastwest;strokeColor=#808080;fillColor=#808080;" vertex="1" parent="UO6ceEUE-K-IvFFHwdzp-27">
          <mxGeometry y="26" width="160" height="34" as="geometry" />
        </mxCell>
        <mxCell id="UO6ceEUE-K-IvFFHwdzp-35" style="edgeStyle=orthogonalEdgeStyle;rounded=0;orthogonalLoop=1;jettySize=auto;html=1;exitX=0.5;exitY=0;exitDx=0;exitDy=0;entryX=0.5;entryY=1;entryDx=0;entryDy=0;" edge="1" parent="WIyWlLk6GJQsqaUBKTNV-1" source="UO6ceEUE-K-IvFFHwdzp-31" target="UO6ceEUE-K-IvFFHwdzp-27">
          <mxGeometry relative="1" as="geometry" />
        </mxCell>
        <mxCell id="UO6ceEUE-K-IvFFHwdzp-31" value="EmploeeController" style="swimlane;fontStyle=0;align=center;verticalAlign=top;childLayout=stackLayout;horizontal=1;startSize=26;horizontalStack=0;resizeParent=1;resizeLast=0;collapsible=1;marginBottom=0;rounded=0;shadow=0;strokeWidth=1;" vertex="1" parent="WIyWlLk6GJQsqaUBKTNV-1">
          <mxGeometry x="630" y="-520" width="470" height="250" as="geometry">
            <mxRectangle x="20" y="505" width="170" height="26" as="alternateBounds" />
          </mxGeometry>
        </mxCell>
        <mxCell id="UO6ceEUE-K-IvFFHwdzp-32" value="-_context:ApplocationContext" style="text;align=left;verticalAlign=top;spacingLeft=4;spacingRight=4;overflow=hidden;rotatable=0;points=[[0,0.5],[1,0.5]];portConstraint=eastwest;" vertex="1" parent="UO6ceEUE-K-IvFFHwdzp-31">
          <mxGeometry y="26" width="470" height="24" as="geometry" />
        </mxCell>
        <mxCell id="UO6ceEUE-K-IvFFHwdzp-33" value="" style="line;html=1;strokeWidth=1;align=left;verticalAlign=middle;spacingTop=-1;spacingLeft=3;spacingRight=3;rotatable=0;labelPosition=right;points=[];portConstraint=eastwest;" vertex="1" parent="UO6ceEUE-K-IvFFHwdzp-31">
          <mxGeometry y="50" width="470" height="14" as="geometry" />
        </mxCell>
        <mxCell id="UO6ceEUE-K-IvFFHwdzp-34" value="+Create():ActionResult&#xa;+Create(emploee:Emploee):Task&lt;IActionResult&gt;&#xa;+Delete(id:Integer? ):Task&lt;IActionResult&gt;&#xa;+DownloadAllEmploees(model:IndexViewModel):Task&lt;IActionResult&gt;&#xa;+DownloadFile(id:Integer? ):Task&lt;IActionResult&gt;&#xa;+Edit(emploee:Emploee ):Task&lt;IActionResult&gt;&#xa;+Edit(id:Integer):Task&lt;IActionResult&gt;&#xa;+EmploeeController(context:ApplicationContext)&#xa;+Error():IActionResult&#xa;+GetEmployees(FName:String, LName:String, minstanding:String,&#xa; [SortState sortOrder = SortState.FNameAsc]):Task&lt;IActionResult&gt;&#xa;+UploadJsonFile(file :IFormFile):Task&lt;IActionResilt&gt;" style="text;align=left;verticalAlign=top;spacingLeft=4;spacingRight=4;overflow=hidden;rotatable=0;points=[[0,0.5],[1,0.5]];portConstraint=eastwest;" vertex="1" parent="UO6ceEUE-K-IvFFHwdzp-31">
          <mxGeometry y="64" width="470" height="176" as="geometry" />
        </mxCell>
        <mxCell id="UO6ceEUE-K-IvFFHwdzp-37" value="TagHelper" style="swimlane;fontStyle=2;align=center;verticalAlign=middle;childLayout=stackLayout;horizontal=1;startSize=26;horizontalStack=0;resizeParent=1;resizeLast=0;collapsible=1;marginBottom=0;rounded=0;shadow=0;strokeWidth=1;strokeColor=#808080;fontColor=#808080;" vertex="1" collapsed="1" parent="WIyWlLk6GJQsqaUBKTNV-1">
          <mxGeometry x="2143" y="-650" width="170" height="26" as="geometry">
            <mxRectangle x="355" y="380" width="160" height="60" as="alternateBounds" />
          </mxGeometry>
        </mxCell>
        <mxCell id="UO6ceEUE-K-IvFFHwdzp-38" value="" style="line;html=1;strokeWidth=1;align=left;verticalAlign=middle;spacingTop=-1;spacingLeft=3;spacingRight=3;rotatable=0;labelPosition=right;points=[];portConstraint=eastwest;strokeColor=#808080;fillColor=#808080;" vertex="1" parent="UO6ceEUE-K-IvFFHwdzp-37">
          <mxGeometry y="26" width="160" height="34" as="geometry" />
        </mxCell>
        <mxCell id="UO6ceEUE-K-IvFFHwdzp-44" style="edgeStyle=orthogonalEdgeStyle;rounded=0;orthogonalLoop=1;jettySize=auto;html=1;exitX=0.5;exitY=0;exitDx=0;exitDy=0;entryX=0.5;entryY=1;entryDx=0;entryDy=0;" edge="1" parent="WIyWlLk6GJQsqaUBKTNV-1" source="UO6ceEUE-K-IvFFHwdzp-39" target="UO6ceEUE-K-IvFFHwdzp-37">
          <mxGeometry relative="1" as="geometry" />
        </mxCell>
        <mxCell id="UO6ceEUE-K-IvFFHwdzp-39" value="SortHeaderTagHelper" style="swimlane;fontStyle=0;align=center;verticalAlign=top;childLayout=stackLayout;horizontal=1;startSize=26;horizontalStack=0;resizeParent=1;resizeLast=0;collapsible=1;marginBottom=0;rounded=0;shadow=0;strokeWidth=1;" vertex="1" parent="WIyWlLk6GJQsqaUBKTNV-1">
          <mxGeometry x="1993" y="-570" width="470" height="214" as="geometry">
            <mxRectangle x="20" y="505" width="170" height="26" as="alternateBounds" />
          </mxGeometry>
        </mxCell>
        <mxCell id="UO6ceEUE-K-IvFFHwdzp-42" value="-urlHelperFactory:IUrlHelperFactory&#xa;+Action{get;set;}:String&#xa;+Current{get;set;}:SortState&#xa;+FName{get;set;}:String&#xa;+LName{get;set;}:String&#xa;+minstanding{get;set;}:String&#xa;+Property{get;set;}:SortState&#xa;+Up{get;set;}:Boolean&#xa;+ViewContext{get;set;}:ViewContext&#xa;" style="text;align=left;verticalAlign=top;spacingLeft=4;spacingRight=4;overflow=hidden;rotatable=0;points=[[0,0.5],[1,0.5]];portConstraint=eastwest;" vertex="1" parent="UO6ceEUE-K-IvFFHwdzp-39">
          <mxGeometry y="26" width="470" height="134" as="geometry" />
        </mxCell>
        <mxCell id="UO6ceEUE-K-IvFFHwdzp-41" value="" style="line;html=1;strokeWidth=1;align=left;verticalAlign=middle;spacingTop=-1;spacingLeft=3;spacingRight=3;rotatable=0;labelPosition=right;points=[];portConstraint=eastwest;" vertex="1" parent="UO6ceEUE-K-IvFFHwdzp-39">
          <mxGeometry y="160" width="470" height="14" as="geometry" />
        </mxCell>
        <mxCell id="UO6ceEUE-K-IvFFHwdzp-43" value="+Process(context:TagHelperContext, output:TagHelperOutput):void&lt;div&gt;+SortHeaderTagHelper(helperFactory:IUrlHelperFactory)&lt;/div&gt;" style="text;html=1;align=left;verticalAlign=middle;resizable=0;points=[];autosize=1;strokeColor=none;fillColor=none;" vertex="1" parent="UO6ceEUE-K-IvFFHwdzp-39">
          <mxGeometry y="174" width="470" height="40" as="geometry" />
        </mxCell>
        <mxCell id="UO6ceEUE-K-IvFFHwdzp-45" value="IndexViewModel" style="swimlane;fontStyle=2;align=center;verticalAlign=middle;childLayout=stackLayout;horizontal=1;startSize=26;horizontalStack=0;resizeParent=1;resizeLast=0;collapsible=1;marginBottom=0;rounded=0;shadow=0;strokeWidth=1;" vertex="1" parent="WIyWlLk6GJQsqaUBKTNV-1">
          <mxGeometry x="1290" y="-540" width="260" height="135" as="geometry">
            <mxRectangle x="20" y="505" width="170" height="26" as="alternateBounds" />
          </mxGeometry>
        </mxCell>
        <mxCell id="UO6ceEUE-K-IvFFHwdzp-46" value="+Emploees{get;set;}:IEnumerable&lt;Emploee&gt;&#xa;+EmployeesIds{get;set;}:Integer[0..n]&#xa;+FName{get;set;}:String&#xa;+LName{get;set;}:String&#xa;+ministanding{get;set;}:String&#xa;+SortViewModel{get;set;}:SortViewModel&#xa;" style="text;align=left;verticalAlign=top;spacingLeft=4;spacingRight=4;overflow=hidden;rotatable=0;points=[[0,0.5],[1,0.5]];portConstraint=eastwest;" vertex="1" parent="UO6ceEUE-K-IvFFHwdzp-45">
          <mxGeometry y="26" width="260" height="104" as="geometry" />
        </mxCell>
        <mxCell id="UO6ceEUE-K-IvFFHwdzp-47" value="SortViewModel" style="swimlane;fontStyle=2;align=center;verticalAlign=middle;childLayout=stackLayout;horizontal=1;startSize=26;horizontalStack=0;resizeParent=1;resizeLast=0;collapsible=1;marginBottom=0;rounded=0;shadow=0;strokeWidth=1;" vertex="1" parent="WIyWlLk6GJQsqaUBKTNV-1">
          <mxGeometry x="1663" y="-570" width="260" height="235" as="geometry">
            <mxRectangle x="20" y="505" width="170" height="26" as="alternateBounds" />
          </mxGeometry>
        </mxCell>
        <mxCell id="UO6ceEUE-K-IvFFHwdzp-48" value="+AddressSort{ get; set;}:SortState&#xa;+CitySort{ get; set;}:SortState&#xa;+Current{ get; set;}:SortState&#xa;+DateOfBirthSort{ get; set;}:SortState&#xa;+DateOfHireSort{ get; set;}:SortState&#xa;+EmailSort{ get; set;}:SortState&#xa;+FNameSort{ get; set;}:SortState&#xa;+LNameSort{ get; set;}:SortState&#xa;+PositionSort{ get; set;}:SortState&#xa;+RegionSort{ get; set;}:SortState&#xa;+Up{ get; set;}:SortState&#xa;&#xa;" style="text;align=left;verticalAlign=top;spacingLeft=4;spacingRight=4;overflow=hidden;rotatable=0;points=[[0,0.5],[1,0.5]];portConstraint=eastwest;" vertex="1" parent="UO6ceEUE-K-IvFFHwdzp-47">
          <mxGeometry y="26" width="260" height="164" as="geometry" />
        </mxCell>
        <mxCell id="UO6ceEUE-K-IvFFHwdzp-49" value="" style="line;html=1;strokeWidth=1;align=left;verticalAlign=middle;spacingTop=-1;spacingLeft=3;spacingRight=3;rotatable=0;labelPosition=right;points=[];portConstraint=eastwest;" vertex="1" parent="UO6ceEUE-K-IvFFHwdzp-47">
          <mxGeometry y="190" width="260" height="14" as="geometry" />
        </mxCell>
        <mxCell id="UO6ceEUE-K-IvFFHwdzp-50" value="+SortViewModel(sortOrder:SortState)" style="text;html=1;align=left;verticalAlign=middle;resizable=0;points=[];autosize=1;strokeColor=none;fillColor=none;" vertex="1" parent="UO6ceEUE-K-IvFFHwdzp-47">
          <mxGeometry y="204" width="260" height="30" as="geometry" />
        </mxCell>
        <mxCell id="UO6ceEUE-K-IvFFHwdzp-53" style="edgeStyle=orthogonalEdgeStyle;rounded=0;orthogonalLoop=1;jettySize=auto;html=1;entryX=0;entryY=0.5;entryDx=0;entryDy=0;endArrow=diamondThin;endFill=0;startSize=7;endSize=15;" edge="1" parent="WIyWlLk6GJQsqaUBKTNV-1" source="UO6ceEUE-K-IvFFHwdzp-9" target="UO6ceEUE-K-IvFFHwdzp-12">
          <mxGeometry relative="1" as="geometry" />
        </mxCell>
        <mxCell id="UO6ceEUE-K-IvFFHwdzp-54" style="edgeStyle=orthogonalEdgeStyle;rounded=0;orthogonalLoop=1;jettySize=auto;html=1;entryX=0;entryY=0.5;entryDx=0;entryDy=0;startSize=0;endSize=0;endArrow=none;endFill=0;" edge="1" parent="WIyWlLk6GJQsqaUBKTNV-1" source="UO6ceEUE-K-IvFFHwdzp-13" target="UO6ceEUE-K-IvFFHwdzp-31">
          <mxGeometry relative="1" as="geometry" />
        </mxCell>
        <mxCell id="UO6ceEUE-K-IvFFHwdzp-55" value="n" style="text;html=1;align=center;verticalAlign=middle;resizable=0;points=[];autosize=1;strokeColor=none;fillColor=none;" vertex="1" parent="WIyWlLk6GJQsqaUBKTNV-1">
          <mxGeometry x="415" y="-462" width="30" height="30" as="geometry" />
        </mxCell>
        <mxCell id="UO6ceEUE-K-IvFFHwdzp-56" value="n" style="text;html=1;align=center;verticalAlign=middle;resizable=0;points=[];autosize=1;strokeColor=none;fillColor=none;" vertex="1" parent="WIyWlLk6GJQsqaUBKTNV-1">
          <mxGeometry x="600" y="-425" width="30" height="30" as="geometry" />
        </mxCell>
        <mxCell id="UO6ceEUE-K-IvFFHwdzp-57" value="1" style="text;html=1;align=center;verticalAlign=middle;resizable=0;points=[];autosize=1;strokeColor=none;fillColor=none;" vertex="1" parent="WIyWlLk6GJQsqaUBKTNV-1">
          <mxGeometry x="-163" y="-735" width="30" height="30" as="geometry" />
        </mxCell>
        <mxCell id="UO6ceEUE-K-IvFFHwdzp-58" style="edgeStyle=orthogonalEdgeStyle;rounded=0;orthogonalLoop=1;jettySize=auto;html=1;entryX=-0.002;entryY=0.69;entryDx=0;entryDy=0;entryPerimeter=0;endArrow=none;endFill=0;" edge="1" parent="WIyWlLk6GJQsqaUBKTNV-1" source="UO6ceEUE-K-IvFFHwdzp-47" target="UO6ceEUE-K-IvFFHwdzp-42">
          <mxGeometry relative="1" as="geometry" />
        </mxCell>
        <mxCell id="UO6ceEUE-K-IvFFHwdzp-60" style="edgeStyle=orthogonalEdgeStyle;rounded=0;orthogonalLoop=1;jettySize=auto;html=1;entryX=1;entryY=0.5;entryDx=0;entryDy=0;endArrow=diamondThin;endFill=1;endSize=16;" edge="1" parent="WIyWlLk6GJQsqaUBKTNV-1" source="UO6ceEUE-K-IvFFHwdzp-48" target="UO6ceEUE-K-IvFFHwdzp-46">
          <mxGeometry relative="1" as="geometry" />
        </mxCell>
        <mxCell id="UO6ceEUE-K-IvFFHwdzp-61" style="edgeStyle=orthogonalEdgeStyle;rounded=0;orthogonalLoop=1;jettySize=auto;html=1;entryX=0;entryY=0.5;entryDx=0;entryDy=0;endArrow=none;endFill=0;" edge="1" parent="WIyWlLk6GJQsqaUBKTNV-1" source="UO6ceEUE-K-IvFFHwdzp-34" target="UO6ceEUE-K-IvFFHwdzp-46">
          <mxGeometry relative="1" as="geometry" />
        </mxCell>
        <mxCell id="UO6ceEUE-K-IvFFHwdzp-62" value="1" style="text;html=1;align=center;verticalAlign=middle;resizable=0;points=[];autosize=1;strokeColor=none;fillColor=none;" vertex="1" parent="WIyWlLk6GJQsqaUBKTNV-1">
          <mxGeometry x="1100" y="-395" width="30" height="30" as="geometry" />
        </mxCell>
        <mxCell id="UO6ceEUE-K-IvFFHwdzp-63" value="1" style="text;html=1;align=center;verticalAlign=middle;resizable=0;points=[];autosize=1;strokeColor=none;fillColor=none;" vertex="1" parent="WIyWlLk6GJQsqaUBKTNV-1">
          <mxGeometry x="1260" y="-492" width="30" height="30" as="geometry" />
        </mxCell>
      </root>
    </mxGraphModel>
  </diagram>
</mxfile>
